<svg width="1279" height="363" viewBox="0 0 1279 363" fill="none" xmlns="http://www.w3.org/2000/svg">
<path d="M242.547 170.875L345.303 169.29C354.658 168.626 362.736 176.09 362.531 185.496C360.333 277.312 287.841 355.275 194.492 362.125C182.887 362.994 171.385 362.687 160.24 361.358C153.185 360.54 158.451 307.628 155.486 307.935C154.105 308.088 133.247 356.041 130.18 355.121C66.8394 336.206 16.7395 283.192 3.44767 216.425C2.78308 213.154 97.5128 200.066 96.0814 197.459C94.3943 194.392 0.738178 198.533 0.482566 194.494C-3.60722 138.719 18.5799 86.5739 56.3593 50.3791C59.4266 47.414 101.909 85.8071 103.034 85.0914C104.21 84.3246 73.1786 36.0648 76.9616 33.3553C102.983 14.8489 134.168 2.98835 168.062 0.483336C185.546 -0.794731 202.825 0.483398 219.389 4.06198C223.734 4.98219 216.066 37.7006 216.781 37.2405C217.497 36.7293 241.115 10.1456 245.41 11.7816C287.33 27.7318 322.758 58.9165 343.411 100.172C347.654 108.608 343.565 118.883 334.772 122.258L242.598 170.875H242.547Z" fill="#426F0D"/>
<path d="M240.194 323.116C255.326 316.828 273.833 315.14 286.511 304.251C298.78 293.771 303.381 275.878 312.277 261.359C321.121 246.841 334.924 234.571 338.656 218.876C342.439 202.977 335.946 186.107 334.413 170.106L242.546 170.872L332.061 123.277C331.652 121.897 331.192 120.517 330.63 119.187C324.342 104.055 308.749 94.0862 297.86 81.4078C287.38 69.1384 280.07 52.1145 265.551 43.2192C252.259 35.0907 235.695 35.4996 220.921 32.7389C218.467 35.3462 216.831 37.1355 216.627 37.2378C216.422 37.34 216.831 35.244 217.394 32.0233C217.189 32.0233 216.985 31.9211 216.78 31.8699C200.523 27.9846 184.522 18.6291 168.214 19.9583C151.752 21.2875 137.438 33.148 122.153 39.4872C110.241 44.4461 96.2847 46.5422 84.731 52.5235C92.7572 67.0935 103.595 84.6285 102.879 85.0375C102.215 85.4464 86.1625 71.3876 73.0751 61.0098C62.8507 71.6944 58.2497 87.8493 50.1212 101.243C41.277 115.762 27.474 128.032 23.7421 143.726C19.8568 159.983 26.7583 177.212 28.0875 193.571C28.1386 194.491 28.1897 195.462 28.2408 196.434C56.1025 196.536 94.9044 195.513 95.978 197.507C96.8982 199.245 56.0003 205.482 28.2408 210.492C27.9341 221.842 27.5763 233.293 31.7683 243.466C38.0563 258.599 53.6487 268.568 64.5377 281.246C75.0178 293.516 82.3283 310.539 96.847 319.435C110.906 328.023 128.696 327.103 144.084 330.426C149.605 319.077 154.718 308.034 155.382 307.983C156.865 307.83 156.302 320.764 156.251 333.902C168.878 338.197 181.403 343.667 194.133 342.645C210.594 341.315 224.909 329.455 240.194 323.116Z" fill="#6DAF20"/>
<path d="M181.305 183.815C180.947 183.815 180.59 183.764 180.283 183.61L91.9946 144.195C90.7165 143.632 90.103 142.099 90.7165 140.821C91.2788 139.543 92.8125 138.929 94.0906 139.543L178.442 177.169L173.688 118.276C173.586 116.844 174.608 115.617 176.04 115.515C177.471 115.413 178.698 116.435 178.8 117.867L183.913 181.054C183.964 181.974 183.555 182.843 182.839 183.355C182.379 183.661 181.868 183.815 181.356 183.815H181.305Z" fill="#426F0D"/>
<path d="M144.647 235.918C144.136 235.918 143.625 235.764 143.165 235.458C141.989 234.64 141.733 233.055 142.551 231.879L179.155 179.734C179.564 179.12 180.28 178.711 180.995 178.66C181.762 178.558 182.478 178.865 183.04 179.376L230.226 226C231.249 226.971 231.249 228.607 230.226 229.629C229.255 230.652 227.619 230.652 226.597 229.629L181.558 185.153L146.692 234.793C146.181 235.509 145.414 235.866 144.596 235.866L144.647 235.918Z" fill="#426F0D"/>
<path d="M181.298 183.822C180.173 183.822 179.151 183.107 178.844 181.931C178.486 180.551 179.253 179.17 180.633 178.761L223.372 166.799C224.752 166.441 226.132 167.208 226.541 168.588C226.899 169.968 226.132 171.348 224.752 171.757L182.014 183.72C182.014 183.72 181.554 183.822 181.298 183.822Z" fill="#426F0D"/>
<path d="M437.326 292.308V90.1585H474.229V259.747H560.787V292.308H437.326ZM565.391 292.308V144.698H600.937V292.308H565.391ZM565.391 128.146V90.1585H600.937V128.146H565.391ZM617.476 292.308V86.9024H653.021V292.308H617.476ZM687.469 352.003C683.489 352.003 679.6 351.641 675.801 350.917C672.002 350.375 668.565 349.289 665.49 347.661V318.085C667.842 318.628 670.646 319.17 673.902 319.713C677.339 320.256 680.504 320.527 683.399 320.527C691.539 320.527 697.418 318.628 701.036 314.829C704.835 311.211 708.181 306.327 711.076 300.177L720.844 277.384L720.301 307.231L655.993 144.698H694.252L739.295 264.631H725.728L770.499 144.698H809.03L744.722 307.231C740.923 316.638 736.31 324.688 730.883 331.381C725.457 338.074 719.125 343.139 711.89 346.576C704.835 350.194 696.694 352.003 687.469 352.003ZM815.254 292.308V90.1585H890.686C904.434 90.1585 916.554 92.6911 927.046 97.7561C937.719 102.64 946.04 109.876 952.009 119.463C957.979 128.87 960.964 140.357 960.964 153.924C960.964 167.31 957.888 178.797 951.738 188.384C945.769 197.79 937.538 205.026 927.046 210.091C916.554 215.156 904.434 217.689 890.686 217.689H852.156V292.308H815.254ZM852.156 185.128H891.229C897.922 185.128 903.711 183.862 908.595 181.329C913.479 178.616 917.278 174.907 919.991 170.204C922.705 165.501 924.061 160.074 924.061 153.924C924.061 147.592 922.705 142.166 919.991 137.643C917.278 132.94 913.479 129.322 908.595 126.79C903.711 124.076 897.922 122.719 891.229 122.719H852.156V185.128ZM1007.96 295.564C997.652 295.564 988.698 293.845 981.1 290.408C973.503 286.971 967.624 282.087 963.463 275.756C959.302 269.244 957.222 261.737 957.222 253.235C957.222 245.094 959.031 237.859 962.649 231.527C966.267 225.015 971.875 219.588 979.472 215.247C987.07 210.905 996.657 207.83 1008.23 206.021L1056.53 198.152V225.286L1015.02 232.341C1007.96 233.608 1002.72 235.869 999.28 239.125C995.843 242.381 994.125 246.632 994.125 251.878C994.125 256.943 996.024 261.013 999.823 264.088C1003.8 266.982 1008.69 268.43 1014.48 268.43C1021.89 268.43 1028.4 266.892 1034.01 263.817C1039.8 260.561 1044.23 256.129 1047.31 250.521C1050.56 244.913 1052.19 238.763 1052.19 232.07V194.082C1052.19 187.751 1049.66 182.505 1044.59 178.344C1039.71 174.003 1033.2 171.832 1025.06 171.832C1017.46 171.832 1010.68 173.912 1004.71 178.073C998.918 182.053 994.667 187.389 991.954 194.082L962.92 179.972C965.815 172.194 970.337 165.501 976.487 159.893C982.819 154.105 990.235 149.582 998.737 146.326C1007.24 143.07 1016.46 141.442 1026.41 141.442C1038.53 141.442 1049.21 143.703 1058.43 148.226C1067.66 152.567 1074.8 158.717 1079.87 166.677C1085.11 174.455 1087.74 183.59 1087.74 194.082V292.308H1054.09V267.073L1061.69 266.53C1057.89 272.862 1053.37 278.198 1048.12 282.539C1042.88 286.7 1036.91 289.956 1030.21 292.308C1023.52 294.478 1016.1 295.564 1007.96 295.564ZM1172.96 295.564C1158.67 295.564 1145.92 292.217 1134.7 285.524C1123.48 278.65 1114.62 269.334 1108.11 257.576C1101.6 245.818 1098.34 232.793 1098.34 218.503C1098.34 204.031 1101.6 191.007 1108.11 179.43C1114.62 167.853 1123.48 158.627 1134.7 151.753C1146.1 144.879 1158.76 141.442 1172.69 141.442C1183.9 141.442 1193.85 143.703 1202.54 148.226C1211.4 152.567 1218.36 158.717 1223.43 166.677L1218 174.003V86.9024H1253.55V292.308H1219.9V263.817L1223.7 270.872C1218.64 278.831 1211.58 284.981 1202.54 289.323C1193.49 293.483 1183.63 295.564 1172.96 295.564ZM1176.76 263.003C1184.9 263.003 1192.04 261.103 1198.19 257.305C1204.34 253.506 1209.14 248.26 1212.58 241.567C1216.19 234.874 1218 227.186 1218 218.503C1218 210.001 1216.19 202.403 1212.58 195.71C1209.14 188.836 1204.34 183.5 1198.19 179.701C1192.04 175.902 1184.9 174.003 1176.76 174.003C1168.8 174.003 1161.65 175.993 1155.32 179.972C1148.99 183.771 1144.02 189.017 1140.4 195.71C1136.96 202.222 1135.24 209.82 1135.24 218.503C1135.24 227.186 1136.96 234.874 1140.4 241.567C1144.02 248.26 1148.99 253.506 1155.32 257.305C1161.65 261.103 1168.8 263.003 1176.76 263.003Z" fill="white"/>
</svg>
