<svg width="113" height="32" viewBox="0 0 113 32" fill="none" xmlns="http://www.w3.org/2000/svg">
<path d="M21.4043 15.0794L30.4723 14.9395C31.2978 14.8809 32.0107 15.5395 31.9926 16.3697C31.7986 24.4722 25.4014 31.3522 17.1635 31.9568C16.1394 32.0335 15.1243 32.0064 14.1408 31.8891C13.5183 31.8169 13.9829 27.1476 13.7213 27.1746C13.5995 27.1882 11.7588 31.4199 11.4881 31.3387C5.89843 29.6695 1.47722 24.9911 0.30425 19.0991C0.245601 18.8104 8.6053 17.6554 8.47898 17.4253C8.3301 17.1546 0.0651427 17.5201 0.0425855 17.1637C-0.31833 12.2417 1.63964 7.63997 4.97359 4.44585C5.24428 4.18418 8.99328 7.5723 9.09254 7.50914C9.1963 7.44147 6.45786 3.18264 6.7917 2.94354C9.08803 1.31039 11.84 0.263715 14.8311 0.0426534C16.374 -0.0701333 17.8989 0.0426589 19.3606 0.358462C19.744 0.439668 19.0673 3.327 19.1305 3.2864C19.1937 3.24128 21.2779 0.895331 21.6569 1.0397C25.3563 2.44728 28.4827 5.19926 30.3053 8.84001C30.6798 9.58441 30.3189 10.4912 29.5429 10.789L21.4088 15.0794H21.4043Z" fill="#426F0D"/>
<path d="M21.1966 28.5139C22.532 27.959 24.1652 27.8102 25.284 26.8492C26.3667 25.9244 26.7728 24.3453 27.5578 23.0641C28.3382 21.7828 29.5563 20.7001 29.8857 19.3151C30.2195 17.912 29.6466 16.4232 29.5112 15.0111L21.4042 15.0788L29.3037 10.8786C29.2676 10.7568 29.227 10.635 29.1774 10.5177C28.6225 9.18231 27.2465 8.30258 26.2855 7.18374C25.3607 6.10099 24.7156 4.59867 23.4343 3.81367C22.2613 3.09635 20.7996 3.13243 19.4958 2.88881C19.2793 3.1189 19.1349 3.2768 19.1169 3.28583C19.0988 3.29485 19.1349 3.10988 19.1845 2.82566C19.1665 2.82566 19.1484 2.81664 19.1304 2.81213C17.6958 2.46926 16.2837 1.64365 14.8445 1.76095C13.3918 1.87825 12.1286 2.92491 10.7797 3.48433C9.72855 3.92194 8.49692 4.10692 7.47734 4.63476C8.18563 5.92053 9.14206 7.46796 9.0789 7.50405C9.02025 7.54014 7.60366 6.29948 6.44873 5.38365C5.54644 6.32655 5.14041 7.75219 4.42309 8.93419C3.64262 10.2154 2.42453 11.2982 2.09519 12.6832C1.75232 14.1179 2.36137 15.6382 2.47866 17.0819C2.48317 17.1631 2.48769 17.2488 2.4922 17.3345C4.95093 17.3436 8.37512 17.2533 8.46986 17.4293C8.55106 17.5827 4.94191 18.1331 2.4922 18.5752C2.46513 19.5767 2.43355 20.5873 2.80349 21.4851C3.35839 22.8205 4.73438 23.7002 5.69532 24.8191C6.62017 25.9018 7.2653 27.4041 8.54655 28.1891C9.7872 28.9471 11.3572 28.8658 12.7151 29.1591C13.2024 28.1575 13.6535 27.1831 13.7121 27.1786C13.843 27.165 13.7934 28.3064 13.7888 29.4659C14.9032 29.8448 16.0085 30.3276 17.1318 30.2373C18.5845 30.12 19.8477 29.0734 21.1966 28.5139Z" fill="#6DAF20"/>
<path d="M15.9998 16.2212C15.9682 16.2212 15.9366 16.2167 15.9096 16.2031L8.11831 12.7248C8.00553 12.6752 7.95139 12.5398 8.00553 12.427C8.05515 12.3143 8.1905 12.2601 8.30328 12.3143L15.7472 15.6347L15.3276 10.4375C15.3186 10.3112 15.4088 10.2029 15.5351 10.1939C15.6614 10.1848 15.7697 10.2751 15.7787 10.4014L16.2299 15.9776C16.2344 16.0588 16.1983 16.1355 16.1351 16.1806C16.0945 16.2077 16.0494 16.2212 16.0043 16.2212H15.9998Z" fill="#426F0D"/>
<path d="M12.7648 20.8189C12.7197 20.8189 12.6746 20.8053 12.634 20.7783C12.5302 20.7061 12.5077 20.5662 12.5799 20.4624L15.8101 15.8607C15.8462 15.8066 15.9093 15.7705 15.9725 15.766C16.0401 15.757 16.1033 15.7841 16.1529 15.8292L20.317 19.9436C20.4072 20.0294 20.4072 20.1737 20.317 20.2639C20.2313 20.3542 20.0869 20.3542 19.9967 20.2639L16.0221 16.339L12.9453 20.7196C12.9002 20.7828 12.8325 20.8143 12.7603 20.8143L12.7648 20.8189Z" fill="#426F0D"/>
<path d="M15.9992 16.2216C15.8999 16.2216 15.8097 16.1584 15.7826 16.0547C15.7511 15.9329 15.8187 15.811 15.9405 15.775L19.7121 14.7193C19.8339 14.6877 19.9557 14.7554 19.9918 14.8772C20.0234 14.999 19.9557 15.1208 19.8339 15.1569L16.0623 16.2126C16.0623 16.2126 16.0217 16.2216 15.9992 16.2216Z" fill="#426F0D"/>
<path d="M38.5932 26V8.16077H41.8498V23.1266H49.4883V26H38.5932ZM49.8946 26V12.9738H53.0315V26H49.8946ZM49.8946 11.5131V8.16077H53.0315V11.5131H49.8946ZM54.491 26V7.87343H57.6278V26H54.491ZM60.6678 31.268C60.3166 31.268 59.9733 31.236 59.6381 31.1722C59.3029 31.1243 58.9996 31.0285 58.7282 30.8848V28.2748C58.9357 28.3227 59.1831 28.3706 59.4705 28.4185C59.7738 28.4664 60.0532 28.4903 60.3086 28.4903C61.0269 28.4903 61.5457 28.3227 61.865 27.9875C62.2002 27.6682 62.4956 27.2372 62.751 26.6944L63.613 24.683L63.5651 27.317L57.8901 12.9738H61.2664L65.2413 23.5576H64.044L67.995 12.9738H71.3952L65.7202 27.317C65.385 28.1471 64.9779 28.8575 64.499 29.4481C64.0201 30.0388 63.4614 30.4857 62.8228 30.7891C62.2002 31.1083 61.4819 31.268 60.6678 31.268ZM71.9445 26V8.16077H78.6013C79.8145 8.16077 80.8841 8.38426 81.8099 8.83124C82.7518 9.26225 83.4861 9.90079 84.0129 10.7469C84.5397 11.577 84.8031 12.5906 84.8031 13.7879C84.8031 14.9692 84.5317 15.9829 83.989 16.829C83.4622 17.6591 82.7358 18.2976 81.8099 18.7446C80.8841 19.1916 79.8145 19.415 78.6013 19.415H75.201V26H71.9445ZM75.201 16.5416H78.6492C79.2398 16.5416 79.7506 16.4299 80.1817 16.2064C80.6127 15.9669 80.9479 15.6397 81.1874 15.2246C81.4268 14.8096 81.5465 14.3307 81.5465 13.7879C81.5465 13.2292 81.4268 12.7503 81.1874 12.3512C80.9479 11.9361 80.6127 11.6169 80.1817 11.3934C79.7506 11.1539 79.2398 11.0342 78.6492 11.0342H75.201V16.5416ZM88.9507 26.2873C88.0408 26.2873 87.2506 26.1357 86.5801 25.8324C85.9096 25.5291 85.3908 25.0981 85.0237 24.5393C84.6565 23.9647 84.4729 23.3022 84.4729 22.5519C84.4729 21.8335 84.6325 21.195 84.9518 20.6363C85.2711 20.0616 85.766 19.5827 86.4364 19.1995C87.1069 18.8164 87.953 18.545 88.9746 18.3854L93.2369 17.691V20.0855L89.5733 20.7081C88.9507 20.8198 88.4877 21.0194 88.1844 21.3067C87.8811 21.5941 87.7295 21.9692 87.7295 22.4322C87.7295 22.8791 87.8971 23.2383 88.2323 23.5097C88.5835 23.7651 89.0145 23.8928 89.5254 23.8928C90.1799 23.8928 90.7546 23.7571 91.2494 23.4857C91.7603 23.1984 92.1514 22.8073 92.4227 22.3124C92.7101 21.8176 92.8538 21.2748 92.8538 20.6841V17.3318C92.8538 16.7731 92.6303 16.3101 92.1833 15.943C91.7523 15.5599 91.1776 15.3683 90.4592 15.3683C89.7888 15.3683 89.1901 15.5519 88.6633 15.919C88.1525 16.2702 87.7774 16.7412 87.5379 17.3318L84.9758 16.0867C85.2312 15.4002 85.6303 14.8096 86.173 14.3147C86.7318 13.8039 87.3863 13.4048 88.1365 13.1174C88.8868 12.8301 89.701 12.6864 90.579 12.6864C91.6485 12.6864 92.5904 12.886 93.4045 13.2851C94.2186 13.6682 94.8492 14.2109 95.2962 14.9133C95.7591 15.5998 95.9906 16.4059 95.9906 17.3318V26H93.0214V23.7731L93.6918 23.7252C93.3566 24.2839 92.9575 24.7548 92.4946 25.138C92.0316 25.5051 91.5048 25.7925 90.9142 26C90.3235 26.1916 89.669 26.2873 88.9507 26.2873ZM103.511 26.2873C102.25 26.2873 101.125 25.992 100.135 25.4014C99.1453 24.7948 98.363 23.9726 97.7884 22.935C97.2137 21.8974 96.9263 20.748 96.9263 19.4869C96.9263 18.2098 97.2137 17.0604 97.7884 16.0388C98.363 15.0171 99.1453 14.203 100.135 13.5963C101.141 12.9897 102.258 12.6864 103.487 12.6864C104.477 12.6864 105.355 12.886 106.121 13.2851C106.904 13.6682 107.518 14.2109 107.965 14.9133L107.486 15.5599V7.87343H110.623V26H107.654V23.4857L107.989 24.1083C107.542 24.8107 106.919 25.3535 106.121 25.7366C105.323 26.1038 104.453 26.2873 103.511 26.2873ZM103.847 23.4139C104.565 23.4139 105.195 23.2463 105.738 22.9111C106.281 22.5758 106.704 22.1129 107.007 21.5222C107.327 20.9316 107.486 20.2531 107.486 19.4869C107.486 18.7366 107.327 18.0661 107.007 17.4755C106.704 16.8689 106.281 16.3979 105.738 16.0627C105.195 15.7275 104.565 15.5599 103.847 15.5599C103.144 15.5599 102.514 15.7355 101.955 16.0867C101.396 16.4219 100.957 16.8848 100.638 17.4755C100.335 18.0502 100.183 18.7206 100.183 19.4869C100.183 20.2531 100.335 20.9316 100.638 21.5222C100.957 22.1129 101.396 22.5758 101.955 22.9111C102.514 23.2463 103.144 23.4139 103.847 23.4139Z" fill="white"/>
</svg>
