<svg width="482" height="482" viewBox="0 0 482 482" fill="none" xmlns="http://www.w3.org/2000/svg">
<path d="M225.234 407.792C325.67 407.792 407.089 326.373 407.089 225.938C407.089 125.502 325.67 44.083 225.234 44.083C124.799 44.083 43.3799 125.502 43.3799 225.938C43.3799 326.373 124.799 407.792 225.234 407.792Z" fill="url(#paint0_linear_1_13631)"/>
<path d="M31.6313 253.954C31.0288 249.837 30.125 245.619 30.125 241C30.125 245.72 31.0288 249.837 31.6313 253.954Z" fill="url(#paint1_linear_1_13631)"/>
<path d="M293.016 348.144C279.56 391.625 257.268 421.75 225.235 421.75C272.257 421.658 317.677 404.657 353.203 373.851C388.729 343.045 411.989 300.489 418.738 253.954H362.203C358.101 273.697 349.799 292.327 337.861 308.579C325.923 324.831 310.629 338.325 293.016 348.144Z" fill="url(#paint2_linear_1_13631)"/>
<path d="M30.125 210.875C30.125 206.658 31.0288 202.54 31.5308 198.423C31.0288 202.038 30.125 206.155 30.125 210.875Z" fill="url(#paint3_linear_1_13631)"/>
<path d="M420.244 241C420.244 245.217 419.34 249.335 418.838 253.452C419.34 249.837 419.842 245.72 420.244 241Z" fill="url(#paint4_linear_1_13631)"/>
<path d="M157.353 103.73C170.708 60.25 193.101 30.125 225.235 30.125C178.195 30.1926 132.751 47.1827 97.2039 77.991C61.6573 108.799 38.3822 151.369 31.6313 197.921H88.1659C92.2682 178.178 100.57 159.548 112.508 143.296C124.446 127.043 139.74 113.55 157.353 103.73Z" fill="url(#paint5_linear_1_13631)"/>
<path d="M157.353 348.144C139.74 338.325 124.446 324.831 112.508 308.579C100.57 292.327 92.2682 273.697 88.1659 253.954H31.6313C38.3822 300.506 61.6573 343.076 97.2039 373.884C132.751 404.692 178.195 421.682 225.235 421.75C193.101 421.75 170.708 391.625 157.353 348.144Z" fill="url(#paint6_linear_1_13631)"/>
<path d="M293.016 103.73C310.629 113.55 325.923 127.043 337.861 143.296C349.799 159.548 358.101 178.178 362.203 197.921H418.738C411.989 151.386 388.729 108.83 353.203 78.0238C317.677 47.2177 272.257 30.2167 225.235 30.125C257.268 30.125 279.56 60.25 293.016 103.73Z" fill="url(#paint7_linear_1_13631)"/>
<path d="M198.022 197.921C201.536 137.671 216.197 100.015 225.235 88.5677C234.272 100.015 248.833 137.27 252.448 197.921H308.48C307.191 166.018 302.032 134.39 293.116 103.731C272.382 92.1576 249.031 86.082 225.285 86.082C201.539 86.082 178.188 92.1576 157.453 103.731C148.538 134.39 143.379 166.018 142.09 197.921H198.022Z" fill="url(#paint8_linear_1_13631)"/>
<path d="M252.347 253.954C248.833 314.204 234.172 351.86 225.134 363.307C216.097 351.86 201.536 314.605 197.921 253.954H141.989C143.278 285.857 148.437 317.485 157.353 348.144C178.088 359.718 201.439 365.793 225.184 365.793C248.93 365.793 272.281 359.718 293.016 348.144C301.932 317.485 307.091 285.857 308.38 253.954H252.347Z" fill="url(#paint9_linear_1_13631)"/>
<path d="M157.353 103.73C178.088 92.1573 201.439 86.0818 225.184 86.0818C248.93 86.0818 272.281 92.1573 293.016 103.73C279.56 60.25 257.268 30.125 225.235 30.125C193.202 30.125 170.708 60.25 157.353 103.73Z" fill="url(#paint10_linear_1_13631)"/>
<path d="M157.353 103.73C178.088 92.1573 201.439 86.0818 225.184 86.0818C248.93 86.0818 272.281 92.1573 293.016 103.73C279.56 60.25 257.268 30.125 225.235 30.125C193.202 30.125 170.708 60.25 157.353 103.73Z" fill="url(#paint11_linear_1_13631)"/>
<path d="M293.016 348.145C272.281 359.718 248.93 365.793 225.184 365.793C201.439 365.793 178.088 359.718 157.353 348.145C170.708 391.625 193.101 421.75 225.235 421.75C257.368 421.75 279.56 391.625 293.016 348.145Z" fill="url(#paint12_linear_1_13631)"/>
<path d="M293.016 348.145C272.281 359.718 248.93 365.793 225.184 365.793C201.439 365.793 178.088 359.718 157.353 348.145C170.708 391.625 193.101 421.75 225.235 421.75C257.368 421.75 279.56 391.625 293.016 348.145Z" fill="url(#paint13_linear_1_13631)"/>
<path d="M420.244 210.875C420.244 215.996 421.047 220.917 421.047 226.44C421.047 220.917 420.645 215.494 420.244 210.875Z" fill="url(#paint14_linear_1_13631)"/>
<path d="M30.1251 241C30.1251 235.879 29.3218 230.958 29.3218 225.436C29.4222 230.958 30.1251 236.381 30.1251 241Z" fill="url(#paint15_linear_1_13631)"/>
<path d="M29.4221 225.938C29.4221 220.716 29.4221 215.896 30.2255 210.373C30.125 215.494 29.4221 220.917 29.4221 225.938Z" fill="url(#paint16_linear_1_13631)"/>
<path d="M421.047 225.938C421.047 231.159 421.047 235.979 420.244 241.502C420.645 236.381 421.047 230.958 421.047 225.938Z" fill="url(#paint17_linear_1_13631)"/>
<path d="M309.083 225.937C309.083 235.276 309.083 244.615 308.38 253.954H362.203C365.949 235.498 365.949 216.477 362.203 198.021H308.38C308.882 207.26 309.083 216.599 309.083 225.937Z" fill="url(#paint18_linear_1_13631)"/>
<path d="M141.286 225.938C141.286 216.599 141.286 207.26 141.989 197.921H88.1659C84.4196 216.377 84.4196 235.398 88.1659 253.853H141.989C141.487 244.615 141.286 235.276 141.286 225.938Z" fill="url(#paint19_linear_1_13631)"/>
<path d="M252.347 197.921H198.022C197.52 206.758 197.218 216.097 197.218 225.938C197.218 235.778 197.218 245.117 198.022 253.954H252.347C252.849 245.117 253.15 235.778 253.15 225.938C253.15 216.097 252.849 206.758 252.347 197.921Z" fill="url(#paint20_linear_1_13631)"/>
<path d="M420.244 241C420.244 235.879 421.047 230.958 421.047 225.435C421.047 219.912 421.047 215.394 420.244 209.871C419.44 204.348 419.34 201.536 418.838 197.419H362.203C365.949 215.875 365.949 234.895 362.203 253.351H418.737C419.34 249.836 419.842 245.619 420.244 241Z" fill="url(#paint21_linear_1_13631)"/>
<path d="M420.244 241C420.244 235.879 421.047 230.958 421.047 225.435C421.047 219.912 421.047 215.394 420.244 209.871C419.44 204.348 419.34 201.536 418.838 197.419H362.203C365.949 215.875 365.949 234.895 362.203 253.351H418.737C419.34 249.836 419.842 245.619 420.244 241Z" fill="url(#paint22_linear_1_13631)"/>
<path d="M85.3543 225.938C85.3475 216.528 86.2895 207.142 88.1659 197.921H31.6314C31.0289 202.038 30.1251 206.256 30.1251 210.875C30.1251 215.494 29.3218 220.917 29.3218 226.44C29.3218 231.963 30.1251 236.381 30.1251 241C30.1251 245.619 31.0289 249.335 31.5309 253.452H88.1659C86.3228 244.396 85.3809 235.179 85.3543 225.938Z" fill="url(#paint23_linear_1_13631)"/>
<path d="M85.3543 225.938C85.3475 216.528 86.2895 207.142 88.1659 197.921H31.6314C31.0289 202.038 30.1251 206.256 30.1251 210.875C30.1251 215.494 29.3218 220.917 29.3218 226.44C29.3218 231.963 30.1251 236.381 30.1251 241C30.1251 245.619 31.0289 249.335 31.5309 253.452H88.1659C86.3228 244.396 85.3809 235.179 85.3543 225.938Z" fill="url(#paint24_linear_1_13631)"/>
<path d="M198.022 197.921H141.989C141.989 207.16 141.286 216.498 141.286 225.938C141.286 235.377 141.286 244.615 141.989 253.954H198.022C197.519 245.117 197.218 235.778 197.218 225.938C197.218 216.097 197.519 206.758 198.022 197.921Z" fill="url(#paint25_linear_1_13631)"/>
<path d="M198.022 197.921H141.989C141.989 207.16 141.286 216.498 141.286 225.938C141.286 235.377 141.286 244.615 141.989 253.954H198.022C197.519 245.117 197.218 235.778 197.218 225.938C197.218 216.097 197.519 206.758 198.022 197.921Z" fill="url(#paint26_linear_1_13631)"/>
<path d="M253.151 225.938C253.151 235.979 253.151 245.117 252.347 253.954H308.38C308.38 244.716 309.083 235.377 309.083 225.938C309.083 216.498 309.083 207.26 308.38 197.921H252.347C252.849 206.758 253.151 216.097 253.151 225.938Z" fill="url(#paint27_linear_1_13631)"/>
<path d="M253.151 225.938C253.151 235.979 253.151 245.117 252.347 253.954H308.38C308.38 244.716 309.083 235.377 309.083 225.938C309.083 216.498 309.083 207.26 308.38 197.921H252.347C252.849 206.758 253.151 216.097 253.151 225.938Z" fill="url(#paint28_linear_1_13631)"/>
<path d="M437.515 391.625H286.89V286.188C286.89 276.297 288.838 266.504 292.623 257.367C296.408 248.229 301.955 239.927 308.949 232.934C315.942 225.94 324.245 220.393 333.382 216.608C342.519 212.823 352.313 210.875 362.203 210.875C372.093 210.875 381.886 212.823 391.024 216.608C400.161 220.393 408.463 225.94 415.457 232.934C422.45 239.927 427.998 248.229 431.783 257.367C435.567 266.504 437.515 276.297 437.515 286.188V391.625ZM317.015 361.5H407.39V286.188C407.39 280.253 406.222 274.377 403.951 268.895C401.68 263.413 398.351 258.431 394.155 254.235C389.959 250.039 384.978 246.711 379.495 244.44C374.013 242.169 368.137 241 362.203 241C356.269 241 350.393 242.169 344.91 244.44C339.428 246.711 334.447 250.039 330.25 254.235C326.054 258.431 322.726 263.413 320.455 268.895C318.184 274.377 317.015 280.253 317.015 286.188V361.5Z" fill="url(#paint29_linear_1_13631)"/>
<path d="M437.515 302.455C435.286 301.681 432.946 301.274 430.587 301.25H407.39V361.5H317.015V301.25H293.819C291.46 301.274 289.119 301.681 286.89 302.455V391.625H437.515V302.455Z" fill="url(#paint30_linear_1_13631)"/>
<path d="M430.587 316.312H293.819C281.674 316.312 271.828 326.158 271.828 338.304V429.884C271.828 442.029 281.674 451.875 293.819 451.875H430.587C442.732 451.875 452.578 442.029 452.578 429.884V338.304C452.578 326.158 442.732 316.312 430.587 316.312Z" fill="url(#paint31_linear_1_13631)"/>
<path d="M293.819 316.312C289.227 316.336 284.759 317.803 281.046 320.507C277.334 323.21 274.566 327.012 273.133 331.375H451.875C450.437 326.996 447.654 323.182 443.921 320.477C440.189 317.773 435.698 316.315 431.089 316.312H293.819Z" fill="url(#paint32_linear_1_13631)"/>
<path d="M383.893 383.19C383.677 378.057 381.647 373.167 378.163 369.391C374.679 365.615 369.968 363.199 364.869 362.572C359.769 361.945 354.613 363.148 350.318 365.968C346.024 368.788 342.869 373.04 341.417 377.968C340.612 381.211 340.574 384.596 341.306 387.856C342.038 391.115 343.52 394.159 345.634 396.746C347.254 398.841 348.105 401.429 348.044 404.077V407.29C348.043 411.073 349.525 414.706 352.172 417.41C354.819 420.113 358.42 421.671 362.203 421.75C366.038 421.75 369.716 420.227 372.428 417.515C375.14 414.803 376.663 411.125 376.663 407.29V404.077C376.632 401.387 377.517 398.766 379.173 396.646C382.239 392.832 383.905 388.083 383.893 383.19Z" fill="url(#paint33_linear_1_13631)"/>
<path d="M382.487 390.822C380.636 385.716 376.937 381.491 372.122 378.981C367.306 376.471 361.724 375.859 356.479 377.265C353.165 378.181 350.12 379.882 347.603 382.224C345.086 384.567 343.17 387.481 342.019 390.721C342.796 392.893 343.915 394.927 345.333 396.746C346.953 398.841 347.804 401.429 347.743 404.077V407.29C347.743 411.125 349.266 414.803 351.978 417.515C354.69 420.227 358.368 421.75 362.203 421.75C366.038 421.75 369.716 420.227 372.428 417.515C375.14 414.803 376.663 411.125 376.663 407.29V404.077C376.632 401.387 377.517 398.766 379.173 396.646C380.573 394.888 381.691 392.923 382.487 390.822Z" fill="url(#paint34_linear_1_13631)"/>
<defs>
<linearGradient id="paint0_linear_1_13631" x1="225.234" y1="526.686" x2="225.234" y2="-219.712" gradientUnits="userSpaceOnUse">
<stop stop-color="#273A9B"/>
<stop offset="0.56" stop-color="#202F65"/>
<stop offset="1" stop-color="#021E2F"/>
</linearGradient>
<linearGradient id="paint1_linear_1_13631" x1="30.9283" y1="633.931" x2="30.9283" y2="-296.43" gradientUnits="userSpaceOnUse">
<stop stop-color="#27E9DE"/>
<stop offset="0.52" stop-color="#03A4EC"/>
<stop offset="1" stop-color="#2547A8"/>
</linearGradient>
<linearGradient id="paint2_linear_1_13631" x1="321.936" y1="601.998" x2="321.936" y2="32.0328" gradientUnits="userSpaceOnUse">
<stop stop-color="#27E9DE"/>
<stop offset="0.52" stop-color="#03A4EC"/>
<stop offset="1" stop-color="#2547A8"/>
</linearGradient>
<linearGradient id="paint3_linear_1_13631" x1="30.9283" y1="633.93" x2="30.9283" y2="-296.43" gradientUnits="userSpaceOnUse">
<stop stop-color="#27E9DE"/>
<stop offset="0.52" stop-color="#03A4EC"/>
<stop offset="1" stop-color="#2547A8"/>
</linearGradient>
<linearGradient id="paint4_linear_1_13631" x1="419.541" y1="633.93" x2="419.541" y2="-296.43" gradientUnits="userSpaceOnUse">
<stop stop-color="#27E9DE"/>
<stop offset="0.52" stop-color="#03A4EC"/>
<stop offset="1" stop-color="#2547A8"/>
</linearGradient>
<linearGradient id="paint5_linear_1_13631" x1="128.433" y1="-190.591" x2="128.433" y2="395.541" gradientUnits="userSpaceOnUse">
<stop stop-color="#27E9DE"/>
<stop offset="0.52" stop-color="#03A4EC"/>
<stop offset="1" stop-color="#2547A8"/>
</linearGradient>
<linearGradient id="paint6_linear_1_13631" x1="128.433" y1="601.998" x2="128.433" y2="32.0328" gradientUnits="userSpaceOnUse">
<stop stop-color="#27E9DE"/>
<stop offset="0.52" stop-color="#03A4EC"/>
<stop offset="1" stop-color="#2547A8"/>
</linearGradient>
<linearGradient id="paint7_linear_1_13631" x1="321.936" y1="-190.591" x2="321.936" y2="395.541" gradientUnits="userSpaceOnUse">
<stop stop-color="#27E9DE"/>
<stop offset="0.52" stop-color="#03A4EC"/>
<stop offset="1" stop-color="#2547A8"/>
</linearGradient>
<linearGradient id="paint8_linear_1_13631" x1="225.235" y1="633.931" x2="225.235" y2="-296.43" gradientUnits="userSpaceOnUse">
<stop stop-color="#27E9DE"/>
<stop offset="0.52" stop-color="#03A4EC"/>
<stop offset="1" stop-color="#2547A8"/>
</linearGradient>
<linearGradient id="paint9_linear_1_13631" x1="225.235" y1="633.93" x2="225.235" y2="-296.43" gradientUnits="userSpaceOnUse">
<stop stop-color="#27E9DE"/>
<stop offset="0.52" stop-color="#03A4EC"/>
<stop offset="1" stop-color="#2547A8"/>
</linearGradient>
<linearGradient id="paint10_linear_1_13631" x1="225.235" y1="633.83" x2="225.235" y2="-296.43" gradientUnits="userSpaceOnUse">
<stop stop-color="#27E9DE"/>
<stop offset="0.52" stop-color="#03A4EC"/>
<stop offset="1" stop-color="#2547A8"/>
</linearGradient>
<linearGradient id="paint11_linear_1_13631" x1="225.235" y1="-122.107" x2="225.235" y2="559.421" gradientUnits="userSpaceOnUse">
<stop stop-color="#27E9DE"/>
<stop offset="0.52" stop-color="#03A4EC"/>
<stop offset="1" stop-color="#2547A8"/>
</linearGradient>
<linearGradient id="paint12_linear_1_13631" x1="225.235" y1="633.83" x2="225.235" y2="-296.43" gradientUnits="userSpaceOnUse">
<stop stop-color="#27E9DE"/>
<stop offset="0.52" stop-color="#03A4EC"/>
<stop offset="1" stop-color="#2547A8"/>
</linearGradient>
<linearGradient id="paint13_linear_1_13631" x1="225.235" y1="752.723" x2="225.235" y2="13.8573" gradientUnits="userSpaceOnUse">
<stop stop-color="#27E9DE"/>
<stop offset="0.52" stop-color="#03A4EC"/>
<stop offset="1" stop-color="#2547A8"/>
</linearGradient>
<linearGradient id="paint14_linear_1_13631" x1="420.645" y1="633.83" x2="420.645" y2="-296.43" gradientUnits="userSpaceOnUse">
<stop stop-color="#27E9DE"/>
<stop offset="0.52" stop-color="#03A4EC"/>
<stop offset="1" stop-color="#2547A8"/>
</linearGradient>
<linearGradient id="paint15_linear_1_13631" x1="29.8239" y1="633.83" x2="29.8239" y2="-296.43" gradientUnits="userSpaceOnUse">
<stop stop-color="#27E9DE"/>
<stop offset="0.52" stop-color="#03A4EC"/>
<stop offset="1" stop-color="#2547A8"/>
</linearGradient>
<linearGradient id="paint16_linear_1_13631" x1="29.8238" y1="633.83" x2="29.8238" y2="-296.43" gradientUnits="userSpaceOnUse">
<stop stop-color="#27E9DE"/>
<stop offset="0.52" stop-color="#03A4EC"/>
<stop offset="1" stop-color="#2547A8"/>
</linearGradient>
<linearGradient id="paint17_linear_1_13631" x1="420.645" y1="633.83" x2="420.645" y2="-296.43" gradientUnits="userSpaceOnUse">
<stop stop-color="#27E9DE"/>
<stop offset="0.52" stop-color="#03A4EC"/>
<stop offset="1" stop-color="#2547A8"/>
</linearGradient>
<linearGradient id="paint18_linear_1_13631" x1="336.697" y1="427.574" x2="336.697" y2="85.4544" gradientUnits="userSpaceOnUse">
<stop stop-color="#27E9DE"/>
<stop offset="0.52" stop-color="#03A4EC"/>
<stop offset="1" stop-color="#2547A8"/>
</linearGradient>
<linearGradient id="paint19_linear_1_13631" x1="113.672" y1="427.574" x2="113.672" y2="85.4547" gradientUnits="userSpaceOnUse">
<stop stop-color="#27E9DE"/>
<stop offset="0.52" stop-color="#03A4EC"/>
<stop offset="1" stop-color="#2547A8"/>
</linearGradient>
<linearGradient id="paint20_linear_1_13631" x1="225.235" y1="427.574" x2="225.235" y2="85.4547" gradientUnits="userSpaceOnUse">
<stop stop-color="#27E9DE"/>
<stop offset="0.52" stop-color="#03A4EC"/>
<stop offset="1" stop-color="#2547A8"/>
</linearGradient>
<linearGradient id="paint21_linear_1_13631" x1="391.625" y1="633.83" x2="391.625" y2="-296.43" gradientUnits="userSpaceOnUse">
<stop stop-color="#27E9DE"/>
<stop offset="0.52" stop-color="#03A4EC"/>
<stop offset="1" stop-color="#2547A8"/>
</linearGradient>
<linearGradient id="paint22_linear_1_13631" x1="391.625" y1="633.83" x2="391.625" y2="-296.43" gradientUnits="userSpaceOnUse">
<stop stop-color="#27E9DE"/>
<stop offset="0.52" stop-color="#03A4EC"/>
<stop offset="1" stop-color="#2547A8"/>
</linearGradient>
<linearGradient id="paint23_linear_1_13631" x1="58.7439" y1="633.83" x2="58.7439" y2="-296.43" gradientUnits="userSpaceOnUse">
<stop stop-color="#27E9DE"/>
<stop offset="0.52" stop-color="#03A4EC"/>
<stop offset="1" stop-color="#2547A8"/>
</linearGradient>
<linearGradient id="paint24_linear_1_13631" x1="58.7439" y1="633.83" x2="58.7439" y2="-296.43" gradientUnits="userSpaceOnUse">
<stop stop-color="#27E9DE"/>
<stop offset="0.52" stop-color="#03A4EC"/>
<stop offset="1" stop-color="#2547A8"/>
</linearGradient>
<linearGradient id="paint25_linear_1_13631" x1="169.604" y1="633.83" x2="169.604" y2="-296.43" gradientUnits="userSpaceOnUse">
<stop stop-color="#27E9DE"/>
<stop offset="0.52" stop-color="#03A4EC"/>
<stop offset="1" stop-color="#2547A8"/>
</linearGradient>
<linearGradient id="paint26_linear_1_13631" x1="169.604" y1="633.83" x2="169.604" y2="-296.43" gradientUnits="userSpaceOnUse">
<stop stop-color="#27E9DE"/>
<stop offset="0.52" stop-color="#03A4EC"/>
<stop offset="1" stop-color="#2547A8"/>
</linearGradient>
<linearGradient id="paint27_linear_1_13631" x1="280.765" y1="633.83" x2="280.765" y2="-296.43" gradientUnits="userSpaceOnUse">
<stop stop-color="#27E9DE"/>
<stop offset="0.52" stop-color="#03A4EC"/>
<stop offset="1" stop-color="#2547A8"/>
</linearGradient>
<linearGradient id="paint28_linear_1_13631" x1="280.765" y1="633.83" x2="280.765" y2="-296.43" gradientUnits="userSpaceOnUse">
<stop stop-color="#27E9DE"/>
<stop offset="0.52" stop-color="#03A4EC"/>
<stop offset="1" stop-color="#2547A8"/>
</linearGradient>
<linearGradient id="paint29_linear_1_13631" x1="362.203" y1="340.613" x2="362.203" y2="151.027" gradientUnits="userSpaceOnUse">
<stop stop-color="white"/>
<stop offset="0.52" stop-color="#CCE2E6"/>
<stop offset="1" stop-color="#8FA1BB"/>
</linearGradient>
<linearGradient id="paint30_linear_1_13631" x1="362.203" y1="265.502" x2="362.203" y2="389.416" gradientUnits="userSpaceOnUse">
<stop stop-color="white"/>
<stop offset="0.52" stop-color="#CCE2E6"/>
<stop offset="1" stop-color="#8FA1BB"/>
</linearGradient>
<linearGradient id="paint31_linear_1_13631" x1="362.203" y1="564.844" x2="362.203" y2="36.7525" gradientUnits="userSpaceOnUse">
<stop stop-color="#273A9B"/>
<stop offset="0.56" stop-color="#202F65"/>
<stop offset="1" stop-color="#021E2F"/>
</linearGradient>
<linearGradient id="paint32_linear_1_13631" x1="362.203" y1="369.634" x2="362.203" y2="429.281" gradientUnits="userSpaceOnUse">
<stop stop-color="#273A9B"/>
<stop offset="0.56" stop-color="#202F65"/>
<stop offset="1" stop-color="#021E2F"/>
</linearGradient>
<linearGradient id="paint33_linear_1_13631" x1="362.203" y1="482.301" x2="362.203" y2="331.576" gradientUnits="userSpaceOnUse">
<stop stop-color="#F3C57A"/>
<stop offset="0.49" stop-color="#F39369"/>
<stop offset="1" stop-color="#E94867"/>
</linearGradient>
<linearGradient id="paint34_linear_1_13631" x1="362.303" y1="416.729" x2="362.303" y2="346.94" gradientUnits="userSpaceOnUse">
<stop stop-color="#F3C57A"/>
<stop offset="0.49" stop-color="#F39369"/>
<stop offset="1" stop-color="#E94867"/>
</linearGradient>
</defs>
</svg>
